<svg width="24" height="24" viewBox="0 0 24 24" fill="none" xmlns="http://www.w3.org/2000/svg">
<path d="M10.7831 12.1053V6.18421C10.7831 5.87014 10.6564 5.56893 10.4308 5.34685C10.2052 5.12476 9.89929 5 9.58029 5C9.26128 5 8.95533 5.12476 8.72976 5.34685C8.50419 5.56893 8.37746 5.87014 8.37746 6.18421V12.8947L7.19865 11.7342C6.96253 11.502 6.65437 11.3541 6.32312 11.3141C5.99187 11.274 5.65653 11.3441 5.37036 11.5132C5.10168 11.6717 4.90645 11.9273 4.82618 12.2254C4.74592 12.5235 4.78695 12.8407 4.94055 13.1095C6.44728 15.7463 7.32534 17.2534 7.57553 17.6316L7.7327 17.8684C8.17094 18.5236 8.76759 19.0613 9.46908 19.4334C10.1706 19.8054 10.9549 20.0001 11.7517 20H11.5849H13.1887C14.4647 20 15.6885 19.5009 16.5908 18.6126C17.4931 17.7243 18 16.5194 18 15.2632V11.7105C18 11.3965 17.8733 11.0952 17.6477 10.8732C17.4221 10.6511 17.1162 10.5263 16.7972 10.5263C16.4782 10.5263 16.1722 10.6511 15.9467 10.8732C15.7211 11.0952 15.5944 11.3965 15.5944 11.7105M10.7831 11.7105V10.1316C10.7831 9.81751 10.9098 9.5163 11.1354 9.29422C11.361 9.07213 11.6669 8.94737 11.9859 8.94737C12.3049 8.94737 12.6109 9.07213 12.8365 9.29422C13.062 9.5163 13.1888 9.81751 13.1888 10.1316V12.1053M13.1888 10.9211C13.1888 10.607 13.3155 10.3058 13.5411 10.0837C13.7666 9.86161 14.0726 9.73684 14.3916 9.73684C14.7106 9.73684 15.0165 9.86161 15.2421 10.0837C15.4677 10.3058 15.5944 10.607 15.5944 10.9211V12.1053M4 7.04789C4.61538 6.60497 5.2766 6.22734 5.97263 5.92131M13.1888 5.36159C14.2472 5.64106 15.24 6.07369 16.1437 6.63422" stroke="white" stroke-width="1.5" stroke-linecap="round" stroke-linejoin="round"/>
</svg>
