<svg width="24" height="24" viewBox="0 0 24 24" fill="none" xmlns="http://www.w3.org/2000/svg">
<path d="M14.6185 4.19439L14.7044 4.27027L19.7339 9.29846C19.888 9.4534 19.9816 9.65842 19.9976 9.87636C20.0135 10.0943 19.9509 10.3108 19.821 10.4865C19.6911 10.6623 19.5025 10.7857 19.2894 10.8344C19.0763 10.8831 18.8528 10.8539 18.6594 10.7521L15.7588 13.651L14.4566 17.1223C14.4223 17.2139 14.3735 17.2994 14.3121 17.3756L14.2481 17.4487L12.8764 18.82C12.7189 18.9773 12.5093 19.0717 12.2871 19.0855C12.0648 19.0993 11.8452 19.0316 11.6694 18.895L11.5825 18.8191L9.02846 16.2666L5.55996 19.7333C5.3954 19.8973 5.17458 19.9925 4.94236 19.9996C4.71014 20.0067 4.48392 19.9251 4.30966 19.7715C4.1354 19.6179 4.02616 19.4037 4.00412 19.1725C3.98209 18.9413 4.04892 18.7103 4.19104 18.5266L4.26693 18.4406L7.73452 14.973L5.18138 12.4196C5.02393 12.2622 4.92935 12.0527 4.91538 11.8306C4.9014 11.6084 4.969 11.3887 5.10548 11.2128L5.18138 11.1269L6.55305 9.75557C6.62205 9.68634 6.7017 9.62862 6.78898 9.58461L6.87859 9.54621L10.3498 8.24346L13.2495 5.34539C13.1507 5.16056 13.1183 4.94738 13.1579 4.74155C13.1975 4.53572 13.3066 4.34975 13.467 4.21477C13.6274 4.0798 13.8294 4.00403 14.039 4.00015C14.2486 3.99628 14.4532 4.06544 14.6185 4.19439Z" fill="white"/>
</svg>
