<svg width="10" height="16" viewBox="0 0 10 16" fill="white" xmlns="http://www.w3.org/2000/svg">
    <path d="M4.00001 9.89898V14.999C4.00001 15.2642 4.10537 15.5186 4.2929 15.7061C4.48044 15.8936 4.7348 15.999 5.00001 15.999C5.26523 15.999 5.51958 15.8936 5.70712 15.7061C5.89465 15.5186 6.00001 15.2642 6.00001 14.999V9.89898C7.21405 9.65116 8.29283 8.96139 9.02721 7.96339C9.76158 6.96539 10.0992 5.73026 9.97469 4.49746C9.85015 3.26465 9.2723 2.12201 8.35316 1.29104C7.43403 0.46008 6.23909 0 5.00001 0C3.76093 0 2.56599 0.46008 1.64686 1.29104C0.727722 2.12201 0.149869 3.26465 0.0253305 4.49746C-0.0992078 5.73026 0.23844 6.96539 0.972814 7.96339C1.70719 8.96139 2.78597 9.65116 4.00001 9.89898ZM5.00001 1.99898C5.59336 1.99898 6.17337 2.17493 6.66672 2.50457C7.16007 2.83422 7.54459 3.30275 7.77165 3.85093C7.99871 4.39911 8.05812 5.00231 7.94237 5.58425C7.82661 6.16619 7.54089 6.70074 7.12133 7.1203C6.70177 7.53986 6.16723 7.82558 5.58528 7.94134C5.00334 8.05709 4.40014 7.99768 3.85196 7.77062C3.30378 7.54356 2.83525 7.15904 2.5056 6.66569C2.17596 6.17234 2.00001 5.59232 2.00001 4.99898C2.00001 4.20333 2.31608 3.44027 2.87869 2.87766C3.4413 2.31505 4.20436 1.99898 5.00001 1.99898Z" fill="black"/>
</svg>
